<?xml version="1.0" encoding="UTF-8"?>
<svg id="_图层_1" data-name=" 图层 1" xmlns="http://www.w3.org/2000/svg" viewBox="0 0 347.76 293.01">
  <defs><style>.cls-1{fill:#1c242f}.cls-2{fill:#0b70a6}@media (prefers-color-scheme: dark){.cls-1{fill:#e6edf3}}</style></defs>
  <path class="cls-1" d="M269.15,226.87c-1.08-3.08-4.84-5.24-7.23-7.89-2.98,3.85-6.12,4.6-10.93,3.34-2.66-.7-5.85-4.18-5.37-8.67,26.04-23.63,39.82-57.44,37.2-92.88s-24.01-69.78-53.41-87.97c-34.4-21.29-74.76-22.65-109.87-6.45-33.46,15.43-55.94,45.75-63.12,79.32-8.26,38.6,4.08,77.45,30.96,104.21,2.93,2.91,4.59,3.95,3.49,8.12-.76,2.89-3.67,4.53-7.1,4.99-4.23.56-5.84-.74-8.45-3.42-37.02-38.16-47.22-94.64-25.37-142.99C68.15,36.31,104.33,8.54,148.19,1.62c39.51-6.24,79.02,5.72,108.1,32.51,49.23,45.34,56.49,120.46,15.34,173.68,2.61,2.47,4.63,5.84,8.03,7.35,2.64.69,6.63-.8,9.24,1.81l56.37,56.38c4.51,4.51,2.26,12.68-1.7,16.18s-11.88,5.29-16.4.85l-54.84-53.83c-2.76-2.71-3.49-4.97-3.18-9.65v-.03h0Z"/>
  <path class="cls-2" d="M186.16,274h-33.89c2.82-2.58,4.64-6.23,4.86-10.58l3.39-64.93,7.76-164c.33.29.72.59,1.18.61l9.01,180.52,2.21,46.97c.24,5,2,9.14,5.47,11.4h.01Z"/>
  <rect class="cls-1" y="273.93" width="295.21" height="9.17"/>
  <path class="cls-2" d="M238.3,274h-30.36c2.92-2.87,4.12-6.43,4.45-11.54l10.38-162.23,10.17,164.16c.3,4.82,2.06,8.12,5.36,9.62h0Z"/>
  <path class="cls-2" d="M130.22,273.99h-29.21c3.14-3.27,4.66-7.59,4.71-13.19l9.7-131.7,6.59,78.52,3.77,55c.33,4.88,1.52,8.64,4.44,11.37h0Z"/>
  <path class="cls-2" d="M78.27,273.99h-20.21c.71-.58,2.71-1.74,3.07-3.5l7.23-35.25,6.89,35.14c.35,1.78,2.33,3.02,3.03,3.6h-.01Z"/>
</svg>
